<svg xmlns="http://www.w3.org/2000/svg" version="1.1" xmlns:xlink="http://www.w3.org/1999/xlink" width="1500" height="491" viewBox="0 0 1500 491"><svg xml:space="preserve" width="1500" height="491" data-version="2" data-id="lg_VZhmOQzvDghYbzySWt" viewBox="0 0 572 491" x="0" y="0"><rect width="100%" height="100%" fill="transparent"></rect><path fill="#eee" d="M100.74 476.684q-3.04-5.74-6.23-14.55-3.19-8.82-6.09-18.94-2.9-10.13-5.17-20-2.26-9.88-3.57-17.95-1.31-8.07-1.31-12.6 0-1.84.78-2.91 1.62-2.26 4-4.71 2.37-2.44 5.62-5.13 1.07-.85 1.99-.85.92 0 1.84.85 3.33 2.69 5.66 5.13 2.34 2.45 3.97 4.71.78 1.07.78 3.12v-.28q0 4.67 1.23 12.63 1.24 7.97 3.26 17.42 2.02 9.45 4.39 18.62 2.37 9.17 4.71 16.32h.42q3.83-9.49 7.16-20.6 3.32-11.12 6.23-22.73 2.9-11.61 5.45-22.59.78-3.18 2.65-4.42 1.88-1.24 5.91-1.24h8.5q3.61 0 5.38 1.06t2.55 4.6q1.84 8.22 4.18 17.35 2.33 9.13 4.85 18.16 2.51 9.03 5.09 16.89 2.59 7.86 4.93 13.52h.42q2.97-6.73 5.35-15.86 2.37-9.13 4.03-18.66 1.66-9.52 2.55-17.66.88-8.14.88-12.81v.28q0-2.05.71-3.12 3.4-4.67 9.35-9.84 1.13-.85 1.98-.85.78 0 1.84.85 3.19 2.69 5.45 5.13 2.27 2.45 3.9 4.71.71 1.14.71 3.05 0 5.94-1.35 14.3-1.34 8.35-3.65 17.81-2.3 9.45-5.16 18.86-2.87 9.42-6.02 17.6-3.15 8.18-6.2 13.84-2.55 4.74-4.56 6.41-2.02 1.66-5.77 1.66h-8.71q-3.19 0-5.35-1.42-2.16-1.41-4.49-5.31-1.77-2.97-4.08-8.35-2.3-5.38-4.6-11.72-2.3-6.33-4.14-12.28-1.84-5.95-2.69-10.05-.99-4.68-1.66-9.03-.68-4.36-.82-6.83h-.56q-.15 2.47-.89 6.83-.74 4.35-1.8 9.03-1.07 4.67-2.84 10.69-1.77 6.01-3.89 12.1t-4.25 11.26q-2.12 5.17-3.96 8.21-2.06 3.47-4.5 5.17-2.44 1.7-6.76 1.7h-8q-3.75 0-5.67-1.34-1.91-1.35-3.96-5.24m116.33-84.11v.28-.07zm-138.7 0v.28Z"></path><rect width="138.7" height="104.22" x="-69.35" y="-52.11" fill="none" rx="0" ry="0" transform="translate(148.22 431.65)"></rect><path fill="#eee" d="M244.68 485.034q-10.41 0-16.53-5.84-6.13-5.84-6.13-16.11 0-5.31 1.95-9.87 1.95-4.57 6.8-8.08 4.85-3.5 13.59-5.62 8.74-2.13 22.34-2.48 0-6.44-3.22-9.28-3.23-2.83-9.67-2.83-5.8 0-9.49 1.98-3.68 1.99-4.6 2.69-.99.85-2.41.64-1.91-.28-4.07-.99t-4.63-1.63q-.36-.14-.78-.46-.43-.32-.5-.95 0-.36.07-.89t.36-1.95q.28-1.41.85-3.5.56-2.09 1.06-3.22.64-1.21 2.12-2.27 1.21-.99 7.29-3.18 6.09-2.2 17.63-2.2 31.79 0 31.79 30.94v40.07q0 1.35-.74 2.31-.74.95-2.51.95h-10.62q-1.14 0-2.02-.32-.89-.32-1.66-1.24l-4.39-5.66h-.5q-3.26 4.74-8.74 6.87-5.49 2.12-12.64 2.12m7.79-16.42q6.51 0 9.84-3.33 3.32-3.33 4.25-6.87v-7.86q-9.85 0-14.77 1.52-4.92 1.53-6.55 3.97-1.62 2.44-1.62 5.27 0 4.11 2.54 5.7 2.55 1.6 6.31 1.6"></path><rect width="66.48" height="76.04" x="-33.24" y="-38.02" fill="none" rx="0" ry="0" transform="translate(255.76 447.51)"></rect><path fill="#eee" d="M327.8 485.034q-7.58 0-12.57-1.27-4.99-1.28-8-3.08-3.01-1.81-4.71-3.3-1.27-1.2-.28-2.69l7.22-10.69q1.56-2.26 3.54-.28 2.05 1.98 5.56 3.86 3.5 1.87 8.74 1.87 4.68 0 7.68-1.59 3.01-1.59 3.01-4.64 0-2.12-1.34-3.46-1.35-1.35-4.75-2.77-3.39-1.41-9.48-3.61-8.99-3.25-13.6-7.86-4.6-4.6-4.6-13.45 0-8.14 4.5-13.24 4.49-5.1 11.54-7.47 7.04-2.37 14.69-2.37 9.7 0 13.63 1.81 3.93 1.8 5.06 2.79 1.06.92 1.49 2.13.92 2.76 1.41 7.29.29 2.62-1.34 3.47-.85.49-2.69 1.06-1.84.57-3.68.99-1.84.43-2.77.43-.28 0-.6-.18-.32-.18-1.09-.89-.92-.92-3.16-2.12-2.23-1.2-6.12-1.2-3.82 0-6.41 1.24-2.58 1.24-2.58 4.35 0 3.4 3.29 5.1 3.29 1.7 10.87 4.39 5.95 2.05 10.37 4.49 4.43 2.45 6.83 6.38 2.41 3.93 2.41 10.58 0 8.64-4.71 13.91-4.71 5.28-12.03 7.65-7.33 2.37-15.33 2.37"></path><rect width="58.34" height="76.04" x="-29.17" y="-38.02" fill="none" rx="0" ry="0" transform="translate(331.2 447.51)"></rect><path fill="#eee" d="M398.95 479.514q0 2.12-.88 2.94-.89.81-3.01.81h-14.59q-2.12 0-3.01-.81-.88-.82-.88-2.94v-52.25h-8.35q-2.13 0-2.94-.89-.82-.88-.82-3.01v-8.7q0-2.13.82-3.01.81-.89 2.94-.89h8.35v-8.99q0-8.57 3.43-14.73 3.44-6.16 9.28-9.48 5.84-3.33 12.99-3.33 3.33 0 5.06.28 1.74.28 2.59.85 2.76 1.56 7.64 6.37.78.85.78 1.7 0 .92-1.2 2.13-2.13 2.19-4.04 3.71-1.91 1.53-3.11 2.3-1.06.64-1.88.75-.81.1-2.23.1-6.94 0-6.94 10.62v7.72h12.82q2.12 0 2.94.89.81.88.81 3.01v8.7q0 2.13-.81 3.01-.82.89-2.94.89h-12.82Z"></path><rect width="53.88" height="109.03" x="-26.94" y="-54.52" fill="none" rx="0" ry="0" transform="translate(391.91 429.25)"></rect><path fill="#eee" d="M444.97 485.034q-10.4 0-16.53-5.84-6.12-5.84-6.12-16.11 0-5.31 1.94-9.87 1.95-4.57 6.8-8.08 4.85-3.5 13.59-5.62 8.75-2.13 22.34-2.48 0-6.44-3.22-9.28-3.22-2.83-9.66-2.83-5.81 0-9.49 1.98-3.68 1.99-4.6 2.69-.99.85-2.41.64-1.91-.28-4.07-.99t-4.64-1.63q-.35-.14-.78-.46-.42-.32-.49-.95 0-.36.07-.89t.35-1.95q.29-1.41.85-3.5.57-2.09 1.06-3.22.64-1.21 2.13-2.27 1.2-.99 7.29-3.18 6.09-2.2 17.63-2.2 31.79 0 31.79 30.94v40.07q0 1.35-.74 2.31-.75.95-2.52.95h-10.62q-1.13 0-2.02-.32-.88-.32-1.66-1.24l-4.39-5.66h-.49q-3.26 4.74-8.75 6.87-5.49 2.12-12.64 2.12m7.79-16.42q6.52 0 9.84-3.33 3.33-3.33 4.25-6.87v-7.86q-9.84 0-14.76 1.52-4.92 1.53-6.55 3.97-1.63 2.44-1.63 5.27 0 4.11 2.55 5.7 2.55 1.6 6.3 1.6"></path><rect width="66.48" height="76.04" x="-33.24" y="-38.02" fill="none" rx="0" ry="0" transform="translate(456.06 447.51)"></rect><path fill="#eee" d="M522.343 241.268C491.93 144.936 418.787 75.235 332.374 55.623c.007-.274.041-.54.041-.814 0-27.487-22.356-49.842-49.835-49.842-27.486 0-49.842 22.362-49.842 49.842 0 .273.034.54.041.814-86.406 19.612-159.548 89.313-189.962 185.645l-4.214 13.347h487.954zM282.58 25.49c15.173 0 27.548 11.636 29.019 26.433a223.373 223.373 0 0 0-58.045 0c1.478-14.79 13.853-26.433 29.026-26.433M66.958 234.099c36.4-98.398 121.513-163.55 215.615-163.55 94.109 0 179.215 65.152 215.629 163.55zm492.674 41.08H5.528V295.7h36.858c0 .219-.048.43-.048.663 0 22.616 16.63 43.029 42.372 52.01l1.642.575h392.47l1.635-.574c25.735-8.982 42.358-29.402 42.358-52.01 0-.227-.055-.432-.055-.664h36.872zm-57.34 21.185c0 15.07-13.332 26.775-27.04 32.063H89.908c-13.71-5.274-27.049-16.986-27.049-32.063 0-.226.048-.438.055-.663h439.31c.02.225.068.437.068.663"></path><path fill="#eee" d="m306.53 97.653-.554 21.056c49.739 12.723 94.19 43.794 126.732 87.61l25.66.67c-36.797-55.8-90.798-95.087-151.838-109.336"></path></svg></svg>